<svg xmlns="http://www.w3.org/2000/svg" viewBox="0 0 360.59 465.58">
  <defs>
    <style>
      .cls-1{fill:#fff;}
      .cls-2{fill:#4a9eff;}
      .cls-3{fill:#36a2eb;}
      .cls-4{fill:#f8f8f8;}
      .cls-5{fill:#e0e0e0;}
      .cls-6{fill:#d0d0d0;}
    </style>
  </defs>
  <g id="Layer_1-2" data-name="Layer 1">
    <path class="cls-6" d="M230.45,0c11.59,2.62,20.86,11.08,23.01,23.02-1.02,21.18,2.02,44.81.22,65.7-.87,10.06-7.91,19.35-17.25,23.17-9.45,3.86-20.74.69-30.7,2.24-7.06,11.65-7.92,33.75-25.82,33.38s-18.1-21.9-25.05-33.38c-9.95-1.55-21.25,1.62-30.7-2.24-9.34-3.82-16.38-13.11-17.25-23.17-1.8-20.89,1.24-44.53.22-65.7,1.45-10.69,12.32-21.66,23.01-23.02h100.3ZM132.2,11.41c-7.6,1.62-13.23,7.29-14.02,15.17-1.92,19.09,1.4,41.2,0,60.61,3.43,21.65,25.88,13.6,40.8,15.34,3.27.38,4.05,1.51,5.5,4.23,3.96,7.39,6.48,19.3,10.68,26,2.86,4.56,7.41,4.54,10.26,0,4.2-6.69,6.72-18.61,10.68-26,1.45-2.7,2.22-3.84,5.5-4.23,14.44-1.68,38.93,6.18,40.84-16.05,1.64-19.11-1.27-40.54-.04-59.9-.87-8.66-7.51-14.6-16.05-15.39-29.79-2.73-63.93,1.96-94.17.21Z"/>
    <path class="cls-6" d="M5.89,248.51c-2.7-.02-5.01-2.21-5.28-4.83,1.58-22.48-1.97-47.52,0-69.68,1.26-14.14,18.83-20.68,28.96-10.56,1.15,1.15,4.76,7.05,4.76,8.34v70.74c3.47-1.97,7-4.36,11.19-4.52.3-11.14-.93-22.14,1.75-33.06,6.13-24.94,29.81-44.65,55.51-46.29,50.73,2.88,105.5-3.71,155.76,0,26.72,1.98,50.84,23.67,55.52,50.03,1.72,9.68.69,19.51,1,29.31,4.19.17,7.73,2.55,11.19,4.52v-70.74c0-1.29,3.61-7.19,4.76-8.34,10.13-10.13,27.69-3.59,28.96,10.56,1.98,22.17-1.57,47.2,0,69.68-.27,2.61-2.58,4.8-5.28,4.83-3.37.03-5.81-2.22-6-5.6l-.14-68.72c-1.52-6.79-11.07-4.05-11.07-.16v130.62h11.23v-40.8c0-2.03,3.85-4.14,5.99-4.12,2.55.02,4.38,1.77,5.22,4.13l-.37,49c-1.06,1.16-2.08,2.68-3.74,2.99-2.88.55-18.36-.62-19.04.05-1.52,10.8-10.96,19.96-21.6,21.81-3.14,24.14-22.13,43.81-46.89,45.56H91.57c-24.24-2.54-43.23-21.4-46.14-45.56-10.64-1.85-20.08-11.01-21.6-21.81-.67-.67-16.16.5-19.04-.05-1.66-.32-2.68-1.84-3.74-2.99l-.37-49c.84-2.36,2.67-4.11,5.22-4.13,2.13-.02,5.99,2.08,5.99,4.12v40.8h11.23v-130.62c0-3.89-9.55-6.63-11.07.16l-.14,68.72c-.19,3.38-2.63,5.63-6,5.6ZM140.62,169.92h-38.55c-23.29,0-43.69,25.51-45.32,47.5-2.81,37.94,2.18,79.28,0,117.58,1.72,20.47,17.32,35.62,37.79,37.06l172.93-.05c19.42-1.91,34.39-16.88,36.3-36.3-1.89-38.46,2.55-79.37.05-117.54-1.47-22.38-21.52-48.25-45.32-48.25h-38.55v50.53c0,.43-1.72,4-2.26,4.47-1.22,1.07-2.57,1.04-4.06,1.17-21.41,1.94-45.7-1.53-67.42-.02-2.63.59-5.6-3.67-5.6-5.63v-50.53ZM207.99,169.92h-55.39v44.91h55.39v-44.91ZM45.56,250.01c-6.13,1.35-10.21,7.32-11.03,13.29-1.47,10.67-1.06,35.09-.23,46.25.54,7.17,3.75,14.26,11.26,16.06v-75.6ZM315.03,325.61c6.02-1.18,10.2-7.53,11.03-13.29,1.5-10.36,1.04-35.33.23-46.25-.54-7.17-3.75-14.26-11.26-16.06v75.6Z"/>
    <path class="cls-5" d="M5.89,248.51c3.37.03,5.81-2.22,6-5.6l.14-68.72c1.52-6.79,11.07-4.05,11.07-.16v130.62h-11.23v-40.8c0-2.03-3.85-4.14-5.99-4.12v-11.23Z"/>
    <path class="cls-5" d="M354.71,248.51v11.23c-2.13-.02-5.99,2.08-5.99,4.12v40.8h-11.23v-130.62c0-3.89,9.55-6.63,11.07.16l.14,68.72c.19,3.38,2.63,5.63,6,5.6Z"/>
    <path class="cls-3" d="M132.2,11.41c30.24,1.75,64.37-2.94,94.17-.21,8.54.78,15.18,6.73,16.05,15.39-1.24,19.36,1.68,40.79.04,59.9-1.91,22.23-26.39,14.37-40.84,16.05-3.28.38-4.06,1.53-5.5,4.23-3.96,7.39-6.48,19.31-10.68,26-2.85,4.54-7.4,4.56-10.26,0-4.21-6.7-6.72-18.6-10.68-26-1.45-2.71-2.23-3.85-5.5-4.23-14.92-1.73-37.37,6.31-40.8-15.34,1.4-19.42-1.92-41.53,0-60.61.79-7.88,6.42-13.56,14.02-15.17Z"/>
    <path class="cls-5" d="M140.62,169.92v50.53c0,1.96,2.97,6.22,5.6,5.63,21.72-1.51,46.01,1.96,67.42.02,1.5-.14,2.84-.11,4.06-1.17.54-.47,2.26-4.04,2.26-4.47v-50.53h38.55c23.81,0,43.85,25.87,45.32,48.25,2.5,38.17-1.94,79.08-.05,117.54-1.91,19.42-16.88,34.39-36.3,36.3l-172.93.05c-20.48-1.44-36.07-16.59-37.79-37.06,2.18-38.3-2.81-79.64,0-117.58,1.63-21.99,22.03-47.5,45.32-47.5h38.55ZM284.08,245.03c-4.22-4.05-11.42-7.27-17.3-7.77H93.81c-13.32,1.39-23.58,11.3-25.72,24.43,1.38,23.67-2.12,49.94-.11,73.3,1.16,13.5,12.45,24.58,25.86,25.79l172.18.04c14.33-1.13,24.99-11.68,26.53-25.86-1.49-23.19,2.05-48.95,0-71.84-.57-6.32-3.94-13.72-8.48-18.09Z"/>
    <rect class="cls-1" x="152.6" y="169.92" width="55.39" height="44.91"/>
    <path class="cls-2" d="M45.56,250.01v75.6c-7.51-1.81-10.72-8.89-11.26-16.06-.83-11.15-1.24-35.57.23-46.25.82-5.98,4.9-11.94,11.03-13.29Z"/>
    <path class="cls-2" d="M315.03,325.61v-75.6c7.51,1.81,10.72,8.89,11.26,16.06.82,10.92,1.27,35.88-.23,46.25-.83,5.77-5.02,12.11-11.03,13.29Z"/>
    <path class="cls-6" d="M284.08,245.03c4.55,4.37,7.92,11.77,8.48,18.09,2.05,22.88-1.49,48.64,0,71.84-1.55,14.19-12.2,24.74-26.53,25.86l-172.18-.04c-13.41-1.2-24.7-12.29-25.86-25.79-2.01-23.36,1.49-49.64.11-73.3,2.14-13.13,12.4-23.04,25.72-24.43h172.97c5.88.51,13.09,3.72,17.3,7.77ZM94.04,248.71c-8.88,1.59-14.05,7.75-14.82,16.62-1.9,21.92,1.4,46.6.11,68.81,1.4,9.14,7.51,14.66,16.73,15.45h168.47c9.82-.85,15.99-6.99,16.84-16.84,1.88-21.73-1.45-46.12-.04-68.13-1.14-9.46-7.3-15.31-16.81-16.13l-170.5.22Z"/>
    <path class="cls-4" d="M94.04,248.71l170.5-.22c9.51.82,15.66,6.67,16.81,16.13-1.41,22.02,1.91,46.41.04,68.13-.85,9.85-7.02,15.99-16.84,16.84H96.06c-9.22-.8-15.33-6.31-16.73-15.45,1.29-22.21-2.01-46.89-.11-68.81.77-8.87,5.94-15.03,14.82-16.62ZM128.51,276.38c-24.93,1.79-17.4,41.92,7.4,32.92,17.64-6.4,12.16-34.32-7.4-32.92ZM229.56,276.38c-24.93,1.79-17.4,41.92,7.4,32.92,17.64-6.4,12.16-34.32-7.4-32.92ZM161.36,299.57c-5.87,1.76-3.02,8.77-.53,12.19,7.63,10.47,22.6,13.07,33.18,5.49,4.2-3.01,13.33-13.09,6.16-17.12-6.39-3.59-7.68,3.02-10.48,6.06-4.58,4.96-13.64,5.13-18.4.37-3.08-3.08-3.57-8.88-9.92-6.98Z"/>
    <path class="cls-6" d="M128.51,276.38c19.57-1.4,25.04,26.52,7.4,32.92-24.8,9-32.34-31.13-7.4-32.92ZM129.77,287.77c-7.56,0-7.56,11.31,0,11.31,7.56,0,7.56-11.31,0-11.31Z"/>
    <path class="cls-6" d="M229.56,276.38c19.57-1.4,25.04,26.52,7.4,32.92-24.8,9-32.34-31.13-7.4-32.92ZM230.82,287.77c-7.56,0-7.56,11.31,0,11.31,7.56,0,7.56-11.31,0-11.31Z"/>
    <path class="cls-6" d="M161.36,299.57c6.35-1.9,6.85,3.9,9.92,6.98,4.77,4.77,13.82,4.59,18.4-.37,2.81-3.03,4.09-9.65,10.48-6.06,7.17,4.03-1.95,14.11-6.16,17.12-10.58,7.58-25.55,4.98-33.18-5.49-2.5-3.43-5.34-10.44.53-12.19Z"/>
    <path class="cls-2" d="M129.77,287.77c7.56,0,7.56,11.31,0,11.31-7.56,0-7.56-11.31,0-11.31Z"/>
    <path class="cls-2" d="M230.82,287.77c7.56,0,7.56,11.31,0,11.31-7.56,0-7.56-11.31,0-11.31Z"/>
    <path d="M96.73,376.22v71.34h78.5c8.49,0,7.73,17.88,8.74,18.04l102.89-.02c-1.79-5.16,2.18-18.02,7.91-18.02h78.5v-153.83c-2.35-11.46-19.04-4.7-22.4-15.68-2.56-8.36,1.68-15.88,10.16-16.65,16.17-1.48,33.12,14.74,35.16,30.96l.03,154.29c10.63,3.08,16.35,7.67,17.43,19.62,2.39,26.51-3.71,50.3-32.41,53.39H88.75c-27.93-4.13-34.86-27.1-32.42-53.41,1.08-11.63,7.26-16.26,17.45-19.6l-.1-70.44h23.05Z"/>
  </g>
</svg>
